<!-- icon666.com - MILLIONS vector ICONS FREE --><svg id="Layer_1" enable-background="new 0 0 512 512" viewBox="0 0 512 512" xmlns="http://www.w3.org/2000/svg"><circle cx="256" cy="256" fill="#ff4f5a" r="256"></circle><path d="m512 256c0-141.159-114.841-256-256-256v512c141.159 0 256-114.841 256-256z" fill="#ee2885"></path><path d="m322.657 256 46.197-46.198c18.377-18.377 18.376-48.279-.001-66.656s-48.279-18.378-66.656-.001l-46.197 46.198-46.197-46.198c-18.377-18.377-48.279-18.376-66.657.001s-18.378 48.279-.001 66.656l46.198 46.198-46.197 46.197c-18.377 18.377-18.377 48.28.001 66.657s48.279 18.378 66.657 0l46.196-46.197 46.197 46.197c18.377 18.377 48.279 18.377 66.656 0s18.378-48.279.001-66.657z" fill="#fff"></path><path d="m368.854 368.854c18.377-18.377 18.378-48.279.001-66.657l-46.198-46.197 46.197-46.198c18.377-18.377 18.376-48.279-.001-66.656s-48.279-18.378-66.656-.001l-46.197 46.198v133.314l46.197 46.197c18.378 18.378 48.28 18.377 66.657 0z" fill="#e6f7ff"></path></svg>