<!-- icon666.com - MILLIONS vector ICONS FREE --><svg viewBox="1 -80 511.99999 511" xmlns="http://www.w3.org/2000/svg"><path d="m224.546875 130.511719c-48.648437-22.578125-84.625-79.101563-84.625-79.101563l-26.667969 9.441406s8.121094 71.132813-18.503906 119.527344h72.863281zm0 0" fill="#e5ca61"></path><path d="m287.453125 130.511719c48.648437-22.578125 84.625-79.101563 84.625-79.101563l26.667969 9.441406s-8.121094 71.132813 18.503906 119.527344h-72.863281zm0 0" fill="#e5ca61"></path><path d="m438.433594 271.289062c19.835937-69.046874 56.617187-123.839843 56.617187-123.839843l-29.671875-26.90625c-146.253906 121.417969-195.234375-91.066407-195.234375-91.066407h-28.289062s-48.980469 212.484376-195.234375 91.066407l-29.671875 26.90625s36.78125 54.792969 56.617187 123.839843l182.433594 40.179688zm0 0" fill="#f9db69"></path><path d="m438.433594 271.289062c-4.886719 16.929688-8.734375 34.71875-10.773438 52.765626-1.769531 15.71875-15.046875 27.601562-30.859375 27.601562h-281.601562c-15.8125 0-29.089844-11.882812-30.859375-27.601562-2.039063-18.046876-5.886719-35.835938-10.773438-52.765626zm0 0" fill="#e5ca61"></path><g fill="#464c51"><path d="m167.613281 225.359375c-4.269531 0-7.726562-3.460937-7.726562-7.726563v-16c0-4.265624 3.457031-7.722656 7.726562-7.722656 4.265625 0 7.722657 3.457032 7.722657 7.722656v16c0 4.265626-3.457032 7.726563-7.722657 7.726563zm0 0"></path><path d="m344.386719 225.359375c-4.265625 0-7.722657-3.460937-7.722657-7.726563v-16c0-4.265624 3.457032-7.722656 7.722657-7.722656 4.269531 0 7.726562 3.457032 7.726562 7.722656v16c0 4.265626-3.457031 7.726563-7.726562 7.726563zm0 0"></path><path d="m256 233.894531c-10.730469 0-20.804688-4.480469-27.632812-12.292969-2.808594-3.210937-2.480469-8.09375.734374-10.902343 3.210938-2.808594 8.089844-2.480469 10.902344.734375 3.890625 4.453125 9.722656 7.007812 15.996094 7.007812s12.105469-2.554687 15.996094-7.007812c2.8125-3.214844 7.691406-3.542969 10.902344-.734375 3.214843 2.808593 3.542968 7.691406.734374 10.902343-6.828124 7.8125-16.902343 12.292969-27.632812 12.292969zm0 0"></path></g><path d="m155.5625 56.128906c0 16.003906-12.972656 28.976563-28.976562 28.976563-16 0-28.972657-12.972657-28.972657-28.976563 0-16 12.972657-28.972656 28.972657-28.972656 16.003906 0 28.976562 12.972656 28.976562 28.972656zm0 0" fill="#87cde9"></path><path d="m119.878906 55.5c-3.550781-10.027344-1.246094-20.699219 5.121094-28.300781-2.691406.148437-5.410156.671875-8.082031 1.617187-15.085938 5.339844-22.984375 21.898438-17.644531 36.984375 5.339843 15.085938 21.898437 22.984375 36.984374 17.644531 5.058594-1.789062 9.304688-4.847656 12.519532-8.683593-12.515625.691406-24.503906-6.847657-28.898438-19.261719zm0 0" fill="#7ab7d1"></path><path d="m414.386719 56.128906c0 16.003906-12.972657 28.976563-28.972657 28.976563-16.003906 0-28.976562-12.972657-28.976562-28.976563 0-16 12.972656-28.972656 28.976562-28.972656 16 0 28.972657 12.972656 28.972657 28.972656zm0 0" fill="#87cde9"></path><path d="m396.34375 73.144531c-15.082031-5.339843-22.984375-21.902343-17.644531-36.984375 1.195312-3.371094 2.949219-6.378906 5.121093-8.964844-11.320312.625-21.703124 7.90625-25.722656 19.265626-5.339844 15.085937 2.558594 31.644531 17.644532 36.984374 11.714843 4.148438 24.316406.308594 31.863281-8.679687-3.714844.207031-7.53125-.304687-11.261719-1.621094zm0 0" fill="#7ab7d1"></path><path d="m284.976562 29.476562c0 16.003907-12.972656 28.976563-28.976562 28.976563s-28.976562-12.972656-28.976562-28.976563c0-16.003906 12.972656-28.976562 28.976562-28.976562s28.976562 12.972656 28.976562 28.976562zm0 0" fill="#fb7073"></path><path d="m276.605469 48.148438c-16.003907 0-28.976563-12.972657-28.976563-28.976563 0-7.09375 2.550782-13.589844 6.785156-18.628906-15.265624.824219-27.390624 13.460937-27.390624 28.933593 0 16 12.972656 28.972657 28.976562 28.972657 8.90625 0 16.871094-4.019531 22.1875-10.34375-.523438.027343-1.050781.042969-1.582031.042969zm0 0" fill="#e16567"></path><path d="m512 134.480469c0 16.003906-12.972656 28.976562-28.976562 28.976562-16.003907 0-28.976563-12.972656-28.976563-28.976562 0-16 12.972656-28.972657 28.976563-28.972657 16.003906 0 28.976562 12.972657 28.976562 28.972657zm0 0" fill="#fb7073"></path><path d="m503.628906 153.15625c-16.003906 0-28.976562-12.972656-28.976562-28.976562 0-7.09375 2.554687-13.589844 6.789062-18.628907-15.265625.824219-27.394531 13.460938-27.394531 28.929688 0 16.003906 12.972656 28.976562 28.976563 28.976562 8.910156 0 16.871093-4.023437 22.1875-10.34375-.523438.027344-1.050782.042969-1.582032.042969zm0 0" fill="#e16567"></path><path d="m57.953125 134.480469c0 16.003906-12.972656 28.976562-28.976563 28.976562-16.003906 0-28.976562-12.972656-28.976562-28.976562 0-16 12.972656-28.972657 28.976562-28.972657 16.003907 0 28.976563 12.972657 28.976563 28.972657zm0 0" fill="#fb7073"></path><path d="m49.578125 153.15625c-16 0-28.972656-12.972656-28.972656-28.976562 0-7.09375 2.550781-13.589844 6.785156-18.628907-15.265625.824219-27.390625 13.460938-27.390625 28.929688 0 16.003906 12.972656 28.976562 28.976562 28.976562 8.90625 0 16.871094-4.023437 22.1875-10.34375-.527343.027344-1.054687.042969-1.585937.042969zm0 0" fill="#e16567"></path></svg>