<!-- icon666.com - MILLIONS vector ICONS FREE --><svg version="1.1" id="Layer_1" xmlns="http://www.w3.org/2000/svg" xmlns:xlink="http://www.w3.org/1999/xlink" x="0px" y="0px" viewBox="0 0 486.97 486.97" style="enable-background:new 0 0 486.97 486.97;" xml:space="preserve"><g transform="translate(0 1)"><path style="fill:#FFA800;" d="M444.986,477.569H293.859c-18.547,0-33.584-15.037-33.584-33.584V40.983 c0-18.547,15.037-33.584,33.584-33.584h151.126c18.547,0,33.584,15.037,33.584,33.584v403.003 C478.569,462.532,463.532,477.569,444.986,477.569"></path><path style="fill:#FFFFFF;" d="M193.109,477.569H41.983c-18.547,0-33.584-15.037-33.584-33.584V40.983 c0-18.547,15.037-33.584,33.584-33.584h151.126c18.547,0,33.584,15.037,33.584,33.584v403.003 C226.692,462.532,211.655,477.569,193.109,477.569"></path><path style="fill:#FFE100;" d="M419.798,477.569H67.17c-18.547,0-33.584-15.037-33.584-33.584V40.983 c0-18.547,15.037-33.584,33.584-33.584h352.628c18.547,0,33.584,15.037,33.584,33.584v403.003 C453.381,462.532,438.344,477.569,419.798,477.569"></path><path style="fill:#FF8800;" d="M176.317,141.734c0,18.547-15.037,33.584-33.584,33.584s-33.584-15.037-33.584-33.584 s15.037-33.584,33.584-33.584S176.317,123.187,176.317,141.734"></path><path style="fill:#FFA800;" d="M151.129,141.734c0,18.547-9.395,33.584-20.99,33.584s-20.99-15.037-20.99-33.584 s9.395-33.584,20.99-33.584S151.129,123.187,151.129,141.734"></path><path style="fill:#FF8800;" d="M377.818,343.235c0,18.547-15.037,33.584-33.584,33.584c-18.547,0-33.584-15.037-33.584-33.584 s15.037-33.584,33.584-33.584C362.781,309.651,377.818,324.689,377.818,343.235"></path><path style="fill:#FFA800;" d="M352.631,343.235c0,18.547-9.395,33.584-20.99,33.584s-20.99-15.037-20.99-33.584 s9.395-33.584,20.99-33.584S352.631,324.689,352.631,343.235"></path><path d="M444.986,485.97H41.983c-23.146,0-41.979-18.833-41.979-41.979V141.738c0-4.637,3.759-8.396,8.396-8.396 s8.396,3.759,8.396,8.396V443.99c0,13.889,11.298,25.188,25.188,25.188h403.003c13.889,0,25.188-11.298,25.188-25.188v-33.584 c0-4.641,3.755-8.396,8.396-8.396s8.396,3.755,8.396,8.396v33.584C486.965,467.137,468.132,485.97,444.986,485.97z"></path><path d="M478.569,351.628c-4.641,0-8.396-3.755-8.396-8.396V40.979c0-13.889-11.298-25.188-25.188-25.188H41.983 c-13.889,0-25.188,11.298-25.188,25.188v33.584c0,4.637-3.759,8.396-8.396,8.396S0.003,79.2,0.003,74.563V40.979 C0.003,17.833,18.836-1,41.983-1h403.003c23.146,0,41.979,18.833,41.979,41.979v302.252 C486.965,347.872,483.21,351.628,478.569,351.628z"></path><path d="M16.795,108.15c0,4.635-3.761,8.396-8.396,8.396s-8.396-3.761-8.396-8.396s3.761-8.396,8.396-8.396 S16.795,103.515,16.795,108.15"></path><path d="M486.965,376.819c0,4.635-3.761,8.396-8.396,8.396s-8.396-3.761-8.396-8.396s3.761-8.396,8.396-8.396 S486.965,372.184,486.965,376.819"></path><path d="M361.027,443.982H62.968c-11.573,0-20.99-9.413-20.99-20.99v-256.07c0-4.637,3.759-8.396,8.396-8.396 s8.396,3.759,8.396,8.396v256.071c0,2.312,1.882,4.198,4.198,4.198h298.058c4.641,0,8.396,3.755,8.396,8.396 S365.667,443.982,361.027,443.982z"></path><path d="M423.996,443.991H394.61c-4.641,0-8.396-3.755-8.396-8.396s3.755-8.396,8.396-8.396h29.386 c2.312,0,4.198-1.886,4.198-4.198V61.973c0-2.316-1.886-4.198-4.198-4.198H62.972c-2.316,0-4.198,1.882-4.198,4.198v37.782 c0,4.637-3.759,8.396-8.396,8.396s-8.396-3.759-8.396-8.396V61.973c0-11.573,9.417-20.99,20.99-20.99h361.023 c11.577,0,20.99,9.417,20.99,20.99v361.028C444.986,434.578,435.573,443.991,423.996,443.991z"></path><path d="M58.774,133.338c0-4.635-3.761-8.396-8.396-8.396s-8.396,3.761-8.396,8.396s3.761,8.396,8.396,8.396 S58.774,137.972,58.774,133.338"></path><path d="M142.733,183.714c-23.146,0-41.979-18.833-41.979-41.979s18.833-41.979,41.979-41.979s41.979,18.833,41.979,41.979 S165.879,183.714,142.733,183.714z M142.733,116.547c-13.889,0-25.188,11.298-25.188,25.188s11.298,25.188,25.188,25.188 c13.889,0,25.188-11.298,25.188-25.188S156.623,116.547,142.733,116.547z"></path><path d="M344.235,385.211c-23.146,0-41.979-18.833-41.979-41.979s18.833-41.979,41.979-41.979s41.979,18.833,41.979,41.979 S367.381,385.211,344.235,385.211z M344.235,318.044c-13.889,0-25.188,11.298-25.188,25.188s11.298,25.188,25.188,25.188 c13.889,0,25.188-11.298,25.188-25.188S358.124,318.044,344.235,318.044z"></path></g></svg>