<!-- icon666.com - MILLIONS vector ICONS FREE --><svg id="Capa_1" enable-background="new 0 0 512 512" viewBox="0 0 512 512" xmlns="http://www.w3.org/2000/svg"><g><g><path d="m453.937 105.714c-6.778-8.888-14.181-17.39-22.22-25.429-27.171-27.172-59.533-47.259-94.841-59.372l-120.874.058v427.139l243.307-49.112c28.31-40.068 44.029-87.514 45.125-137.404z" fill="#fce3a0"></path><path d="m337.194 368.262-81.198-242.365.006-104.926h-81.046c-47.972 16.497-88.102 46.897-117.056 84.957l-50.337 155.152c.995 49.918 16.624 97.409 44.86 137.534l131.304 95.267c23.132 6.995 47.424 10.619 72.273 10.619 24.819 0 49.082-3.616 72.188-10.595l66.144-45.795z" fill="#ffce71"></path><g fill="#70dcba"><path d="m453.937 105.714c32.795 43.008 50.563 95.277 50.563 150.286 0 1.868-.027 3.733-.068 5.594l-50.135-43.557c-13.58-11.798-19.52-30.139-15.436-47.659z"></path><path d="m459.308 398.998c-8.167 11.559-17.379 22.506-27.591 32.718-29.386 29.386-64.836 50.503-103.528 62.189l24.746-60.108c6.988-16.973 22.952-28.552 41.256-29.923z"></path></g><path d="m52.423 398.614 64.841 4.893c18.208 1.374 34.105 12.851 41.138 29.702l25.324 60.672c-38.658-11.691-74.078-32.8-103.442-62.164-10.325-10.327-19.627-21.403-27.861-33.103z" fill="#18c08b"></path><path d="m7.562 261.081c-.034-1.692-.062-3.384-.062-5.081 0-54.916 17.71-107.104 50.4-150.071l15.069 63.774c4.143 17.532-1.766 35.915-15.346 47.751z" fill="#18c08b"></path><g><path d="m368.758 195.61-90.646-62.802c-6.651-4.608-14.382-6.912-22.113-6.911v242.365h81.195c6.528-4.875 11.527-11.8 13.976-20.015l32.685-109.626c4.799-16.093-1.293-33.447-15.097-43.011z" fill="#70dcba"></path><path d="m326.971 353.977c-46.157-64.502-70.974-141.83-70.972-221.146v-6.935c-7.731 0-15.461 2.304-22.112 6.912l-90.645 62.802c-13.804 9.564-19.895 26.917-15.097 43.01l32.686 109.626c4.906 16.455 20.038 27.734 37.209 27.734h115.92c8.599 0 16.685-2.829 23.233-7.719z" fill="#18c08b"></path></g></g><path d="m174.955 20.971c25.734-8.85 53.032-13.471 81.046-13.471 27.951 0 55.191 4.601 80.874 13.412l-55.398 34.24c-15.617 9.652-35.343 9.667-50.974.038z" fill="#70dcba"></path><g><g><g><g><ellipse cx="183.298" cy="256.104" fill="#ffdbe0" rx="22.5" ry="17.918"></ellipse></g><g><ellipse cx="328.702" cy="256.104" fill="#ffdbe0" rx="22.5" ry="17.918"></ellipse></g></g></g></g><g><path d="m446.408 84.88c-2.771-3.081-7.514-3.33-10.592-.562-3.08 2.77-3.332 7.512-.562 10.592 3.676 4.088 7.198 8.288 10.566 12.588l-14.248 61.114c-.006.025-.013.051-.019.077-1.747 7.505-1.93 15.122-.533 22.776-.973.159 2.106-.781-43.622 14.013-3.437-6.375-8.316-11.839-14.368-16.032l-90.646-62.802c-5.706-3.953-12.131-6.534-18.886-7.635.004-52.071.068-48.542-.146-49.601 7.802-1.037 15.321-3.705 22.068-7.875l52.228-32.281c28.013 10.082 54.134 25.335 76.904 45.243 3.119 2.726 7.856 2.408 10.583-.71 2.727-3.119 2.408-7.856-.71-10.583-46.618-40.756-106.433-63.202-168.425-63.202-141.491 0-256 114.497-256 256 0 31.582 5.685 62.418 16.896 91.651 1.145 2.984 3.988 4.816 7.005 4.816.893 0 1.801-.161 2.684-.5 3.867-1.483 5.801-5.821 4.317-9.688-9.555-24.913-14.829-51.07-15.743-77.87l47.368-41.283c.009-.007.018-.015.025-.022 5.869-5.115 10.52-11.334 13.784-18.205.853.428-2.236-.647 43.42 14.465-1.29 7.19-.86 14.485 1.202 21.4l32.686 109.627c2.107 7.067 5.793 13.412 10.801 18.667-25.539 34.974-23.796 32.467-24.271 33.467-6.772-3.633-14.348-5.893-22.345-6.497l-61.234-4.62c-4.921-7.251-9.487-14.811-13.656-22.672-1.939-3.659-6.478-5.053-10.14-3.112-3.659 1.94-5.053 6.48-3.112 10.14 44.558 84.033 131.277 136.236 226.313 136.236 141.491 0 256-114.497 256-256 0-63.313-23.294-124.084-65.592-171.12zm-.259 87.271c.005-.023.011-.046.016-.069l11.279-48.384c23.689 36.026 37.329 77.833 39.304 121.286l-37.533-32.608c-11.486-9.981-16.485-25.458-13.066-40.225zm-10.566 33.402c3.274 6.85 7.927 13.048 13.795 18.146l47.44 41.215c-1.716 46.936-16.91 90.486-41.83 126.886l-61.357 4.595c-8.063.604-15.692 2.885-22.5 6.557-.465-1 1.078 1.274-23.882-33.568 5.163-5.312 8.954-11.769 11.109-18.994l32.686-109.626c1.978-6.63 2.513-13.841 1.258-21.108 45.433-14.699 42.401-13.662 43.281-14.103zm-116.852-182.244-41.198 25.463c-13.048 8.066-29.7 8.266-43.098.032l-41.331-25.461c20.06-5.429 41.143-8.343 62.896-8.343 21.356 0 42.433 2.841 62.731 8.309zm-266.012 188.469c-.008.007-.017.014-.024.021l-37.41 32.604c2.109-44.294 16.238-85.486 39.18-120.397l11.206 47.422c3.485 14.754-1.433 30.296-12.952 40.35zm28.146-20.972c1.388-7.697 1.172-15.344-.598-22.828l-14.211-60.142c27.701-35.434 65.083-62.945 108.131-78.529l52.426 32.296c6.74 4.144 14.249 6.791 22.035 7.815-.214 1.066-.147-2.453-.151 49.592-6.752 1.101-13.176 3.682-18.881 7.635l-90.646 62.801c-5.962 4.131-10.791 9.505-14.221 15.771-46.155-15.277-42.884-14.253-43.884-14.411zm54.468 45.671c-3.831-12.834.923-26.903 12.181-34.702l90.646-62.802c10.739-7.441 24.946-7.439 35.682 0l90.646 62.801c11.068 7.67 16.076 21.641 12.181 34.703l-32.686 109.626c-3.948 13.239-16.101 22.377-30.022 22.377h-115.92c-13.93 0-26.086-9.169-30.022-22.377zm-66.95 170.863 48.316 3.645c15.471 1.168 28.797 10.787 34.776 25.102.011.024.021.048.031.073l18.857 45.177c-39.727-15.071-74.987-40.497-101.98-73.997zm120.855 80.275-23.915-57.295c-.011-.025-.021-.052-.033-.08-3.089-7.37-7.606-13.823-13.167-19.09.853-.818-.823 1.342 24.288-33.045 6.64 3.497 14.104 5.377 21.63 5.377h115.919c7.492 0 14.715-1.767 21.246-5.152 24.645 34.403 23.054 32.355 24.019 33.257-5.607 5.333-10.147 11.876-13.226 19.356l-23.331 56.67c-21.181 6.106-43.548 9.387-66.668 9.387-22.949 0-45.381-3.241-66.762-9.385zm152.241-6.291 18.391-44.671c5.943-14.439 19.31-24.133 34.881-25.299l48.337-3.62c-26.583 32.714-61.554 58.343-101.609 73.59z"></path><path d="m193.551 246.56c4.143 0 7.5-3.358 7.5-7.5v-12c0-4.142-3.357-7.5-7.5-7.5s-7.5 3.358-7.5 7.5v12c0 4.142 3.357 7.5 7.5 7.5z"></path><path d="m318.448 246.56c4.143 0 7.5-3.358 7.5-7.5v-12c0-4.142-3.357-7.5-7.5-7.5s-7.5 3.358-7.5 7.5v12c0 4.142 3.358 7.5 7.5 7.5z"></path><path d="m278.118 243.63c2.722-3.123 2.396-7.86-.728-10.582-3.122-2.721-7.861-2.396-10.581.727-5.727 6.571-15.899 6.564-21.619 0-2.721-3.123-7.459-3.448-10.581-.727-3.123 2.721-3.449 7.458-.728 10.582 11.704 13.431 32.546 13.417 44.237 0z"></path></g></g></svg>