<!-- icon666.com - MILLIONS vector ICONS FREE --><svg version="1.1" id="Capa_1" xmlns="http://www.w3.org/2000/svg" xmlns:xlink="http://www.w3.org/1999/xlink" x="0px" y="0px" viewBox="0 0 512 512" style="enable-background:new 0 0 512 512;" xml:space="preserve"><circle style="fill:#54FBFF;" cx="256" cy="256" r="256"></circle><path style="fill:#00B7BE;" d="M507.33,304.821L274.558,72.049h-10.329L227.81,35.885h-19.608V78.61l-27.141-26.771h-19.608v29.207 l14.214,14.289h-14.214v89.712l17.475,17.178c-14.18,15.264-26.907,35.452-36.249,61.124 c-29.771,81.803-20.83,99.184-10.211,109.841L270.98,511.554C388.931,504.745,485.455,418.09,507.33,304.821z"></path><rect x="341.625" y="173.774" transform="matrix(-0.7071 -0.7071 0.7071 -0.7071 455.6482 620.4729)" style="fill:#9A4C00;" width="29.407" height="84.189"></rect><rect x="319.436" y="213.717" transform="matrix(-0.7071 0.7071 -0.7071 -0.7071 773.4901 121.7457)" style="fill:#703700;" width="84.189" height="14.702"></rect><path style="fill:#FF127F;" d="M395.691,283.528c-28.599-28.599-44.66-14.51-68.581-38.43c-23.92-23.92-9.831-39.981-38.43-68.581 c-28.599-28.599-111.018-9.296-146.001,86.831c-34.983,96.126-16.512,103.295-4.678,115.129s28.539,7.466,38.401,17.328 s5.494,26.567,17.328,38.401s19.003,30.306,115.129-4.677C404.986,394.546,424.29,312.127,395.691,283.528z"></path><path style="fill:#C50A5B;" d="M308.862,429.525c-96.127,34.989-103.292,16.517-115.128,4.682 c-11.835-11.835-7.469-28.54-17.331-38.402l150.706-150.706c4.038,4.038,7.852,6.989,11.544,9.248 c18.157,11.137,33.271,5.411,57.038,29.178C424.293,312.126,404.988,394.548,308.862,429.525z"></path><g><rect x="161.45" y="95.33" style="fill:#FFFFFF;" width="19.608" height="89.71"></rect><rect x="161.45" y="51.839" style="fill:#FFFFFF;" width="19.608" height="29.21"></rect><rect x="208.2" y="35.885" style="fill:#FFFFFF;" width="19.608" height="68.18"></rect><rect x="208.2" y="118.27" style="fill:#FFFFFF;" width="19.608" height="35.811"></rect><rect x="254.95" y="72.05" style="fill:#FFFFFF;" width="19.608" height="77.2"></rect></g></svg>