<!-- icon666.com - MILLIONS vector ICONS FREE --><svg version="1.1" id="Capa_1" xmlns="http://www.w3.org/2000/svg" xmlns:xlink="http://www.w3.org/1999/xlink" x="0px" y="0px" viewBox="0 0 384 384" style="enable-background:new 0 0 384 384;" xml:space="preserve"><circle style="fill: rgb(200, 70, 70);" cx="192" cy="192" r="176" fill="#4DD0E1"></circle><g><path style="" d="M368,176c-8.832,0-16,7.168-16,16c0,88.224-71.776,160-160,160S32,280.224,32,192S103.776,32,192,32 c42.944,0,83.264,16.792,113.528,47.272c6.216,6.264,16.344,6.304,22.624,0.08c6.272-6.224,6.304-16.352,0.08-22.632 C291.92,20.144,243.536,0,192,0C86.128,0,0,86.128,0,192s86.128,192,192,192c105.864,0,192-86.128,192-192 C384,183.168,376.832,176,368,176z" fill="#012E52"></path><path style="" d="M251.312,132.688c-6.248-6.248-16.376-6.248-22.624,0L192,169.376l-36.688-36.688 c-6.24-6.248-16.384-6.248-22.624,0c-6.248,6.248-6.248,16.376,0,22.624L169.376,192l-36.688,36.688 c-6.248,6.248-6.248,16.376,0,22.624C135.808,254.44,139.904,256,144,256s8.192-1.56,11.312-4.688L192,214.624l36.688,36.688 C231.816,254.44,235.904,256,240,256s8.184-1.56,11.312-4.688c6.248-6.248,6.248-16.376,0-22.624L214.624,192l36.688-36.688 C257.56,149.064,257.56,138.936,251.312,132.688z" fill="#012E52"></path></g></svg>