<!-- icon666.com - MILLIONS vector ICONS FREE --><svg viewBox="0 0 64 64" xmlns="http://www.w3.org/2000/svg"><g id="Layer_19" data-name="Layer 19"><circle cx="32" cy="32" fill="#c66b60" r="30" style="fill: rgb(99, 98, 198);"></circle><path d="m19.551 4.706a30 30 0 0 0 .1 54.633 35.971 35.971 0 0 0 12.481-27.273 35.978 35.978 0 0 0 -12.581-27.36z" fill="#e47c6e"></path><circle cx="32" cy="32" fill="#d5cec2" r="21"></circle><path d="m32.132 32.066a35.9 35.9 0 0 0 -6.167-20.176 20.993 20.993 0 0 0 .073 40.239 35.9 35.9 0 0 0 6.094-20.063z" fill="#e7e4dd"></path><path d="m46 23-5-5-9 9-9-9-5 5 9 9-9 9 5 5 9-9 9 9 5-5-9-9z" fill="#c66b60" style="fill: rgb(99, 98, 198);"></path><path d="m31.737 26.737-8.737-8.737-5 5 9 9-9 9 5 5 8.757-8.757a36.363 36.363 0 0 0 .375-5.177 36.3 36.3 0 0 0 -.395-5.329z" fill="#e47c6e"></path></g></svg>