<!-- icon666.com - MILLIONS vector ICONS FREE --><svg id="Layer_1" viewBox="0 0 24 24" xmlns="http://www.w3.org/2000/svg"><g><path id="path14702" d="m20.415 0c-.552.019-.984.481-.969 1.034.003.002.003.005.003.008l.063 2.646c-2.011-1.708-4.612-2.742-7.453-2.742-6.356 0-11.531 5.177-11.531 11.531 0 .628.052 1.245.148 1.844.156 1.396 2.271 1.05 1.972-.323-.081-.497-.117-1-.117-1.521 0-5.273 4.252-9.531 9.528-9.531 2.425 0 4.625.903 6.302 2.386l-3.075.075c-.552 0-.997.45-.997 1.003.002.552.45 1 1.002.997h.047l5.264-.125c.552-.016.989-.474.974-1.026 0 0 0 0 0-.002l-.125-5.264c-.007-.552-.46-.995-1.013-.99-.007 0-.015 0-.023 0z" fill="#fcb030"></path><path id="path14662" d="m22.41 13.039c-.474.034-.862.394-.925.862-.689 4.583-4.637 8.099-9.426 8.099-2.513 0-4.792-.964-6.495-2.547-.977-1.044-2.471.565-1.356 1.461 2.057 1.917 4.822 3.086 7.851 3.086 5.771 0 10.565-4.247 11.398-9.797.109-.636-.403-1.206-1.047-1.164z" fill="#fcb030"></path><path id="path14650" d="m2.551 16.175c-.711.055-1.138.82-.813 1.455.099.195.203.389.313.573.664 1.159 2.398.161 1.734-.995-.089-.153-.172-.313-.25-.474-.18-.37-.573-.593-.984-.559z"></path></g></svg>