<!-- icon666.com - MILLIONS vector ICONS FREE --><svg version="1.1" id="Layer_1" xmlns="http://www.w3.org/2000/svg" xmlns:xlink="http://www.w3.org/1999/xlink" x="0px" y="0px" viewBox="0 0 503.754 503.754" style="enable-background:new 0 0 503.754 503.754;" xml:space="preserve"><g transform="translate(0 1)"><path style="fill:#FFA800;" d="M411.399,7.399H260.273c-9.277,0-16.792,7.514-16.792,16.792v453.378 c0,9.277,7.514,16.792,16.792,16.792h151.126c9.277,0,16.792-7.514,16.792-16.792V24.191 C428.191,14.914,420.676,7.399,411.399,7.399"></path><path style="fill:#FFFFFF;" d="M243.481,7.399H92.355c-9.277,0-16.792,7.514-16.792,16.792v453.378 c0,9.277,7.514,16.792,16.792,16.792h151.126c9.277,0,16.792-7.514,16.792-16.792V24.191 C260.273,14.914,252.758,7.399,243.481,7.399"></path><path style="fill:#FFE100;" d="M386.211,7.399H117.543c-9.277,0-16.792,7.514-16.792,16.792v453.378 c0,9.277,7.514,16.792,16.792,16.792h268.669c9.277,0,16.792-7.514,16.792-16.792V24.191 C403.003,14.914,395.489,7.399,386.211,7.399"></path><path style="fill:#FFA800;" d="M277.064,318.047L277.064,318.047c0,11.041,2.569,21.93,7.506,31.812l6.247,12.485 c1.394,2.796-0.63,6.079-3.753,6.079H216.69c-3.123,0-5.147-3.283-3.753-6.079l6.247-12.485c4.937-9.882,7.506-20.771,7.506-31.812 c-8.295,6.011-17.883,9.11-28.454,9.11c-30.695,0-57.327-25.775-55.405-56.857c1.075-17.48,12.208-32.475,27.035-41.778 c14.886-9.345,28.689-10.092,41.031-7.095c-7.892-9.345-12.661-21.401-12.661-34.583c0-33.13,30.032-59.25,64.355-52.609 c21.485,4.148,38.554,21.804,42.164,43.382c2.804,16.741-2.191,32.324-11.889,43.81c12.434-3.014,26.346-2.233,41.35,7.296 c14.752,9.37,25.843,24.323,26.858,41.77c1.797,30.998-24.919,56.664-55.547,56.664 C295.098,327.157,285.208,323.933,277.064,318.047"></path><path d="M428.191,360.024c-4.641,0-8.396-3.755-8.396-8.396V24.188c0-4.628-3.763-8.396-8.396-8.396H92.355 c-4.628,0-8.396,3.767-8.396,8.396v50.375c0,4.637-3.759,8.396-8.396,8.396c-4.637,0-8.396-3.759-8.396-8.396V24.188 C67.167,10.298,78.466-1,92.355-1h319.044c13.889,0,25.188,11.298,25.188,25.188v327.44 C436.587,356.268,432.831,360.024,428.191,360.024z"></path><path d="M411.399,502.754H92.355c-13.889,0-25.188-11.298-25.188-25.188V141.734c0-4.637,3.759-8.396,8.396-8.396 c4.637,0,8.396,3.759,8.396,8.396v335.832c0,4.632,3.767,8.396,8.396,8.396h319.044c4.633,0,8.396-3.763,8.396-8.396v-58.771 c0-4.641,3.755-8.396,8.396-8.396s8.396,3.755,8.396,8.396v58.771C436.587,491.455,425.288,502.754,411.399,502.754z"></path><path d="M83.959,108.15c0,4.635-3.761,8.396-8.396,8.396c-4.635,0-8.396-3.761-8.396-8.396s3.761-8.396,8.396-8.396 C80.198,99.754,83.959,103.515,83.959,108.15"></path><path d="M436.587,385.215c0,4.635-3.761,8.396-8.396,8.396s-8.396-3.761-8.396-8.396s3.761-8.396,8.396-8.396 S436.587,380.58,436.587,385.215"></path><path d="M394.607,334.844c-4.641,0-8.396-3.755-8.396-8.396V49.379h-184.71c-4.637,0-8.396-3.759-8.396-8.396 s3.759-8.396,8.396-8.396h193.106c4.641,0,8.396,3.759,8.396,8.396v285.465C403.003,331.089,399.248,334.844,394.607,334.844z"></path><path d="M302.252,469.17H109.147c-4.637,0-8.396-3.755-8.396-8.396V175.318c0-4.637,3.759-8.396,8.396-8.396 c4.637,0,8.396,3.759,8.396,8.396v277.06h184.71c4.641,0,8.396,3.755,8.396,8.396C310.648,465.415,306.893,469.17,302.252,469.17z"></path><path d="M287.059,376.815H216.69c-4.395,0-8.4-2.23-10.708-5.961c-2.312-3.739-2.521-8.322-0.562-12.258l6.252-12.495 c2.14-4.28,3.78-8.806,4.891-13.463c-5.776,1.935-11.901,2.911-18.329,2.911c-17.685,0-34.859-7.478-47.12-20.522 c-11.778-12.528-17.694-28.599-16.665-45.243c1.181-19.141,12.463-36.773,30.956-48.375c9.507-5.969,19.407-9.253,29.591-9.835 c-3.374-7.752-5.157-16.169-5.157-24.729c0-18.587,8.232-36.039,22.58-47.879c14.348-11.835,33.202-16.554,51.773-12.975 c24.991,4.829,44.628,25.02,48.842,50.24c2.033,12.143,0.484,24.392-4.28,35.346c10.314,0.59,20.342,3.948,29.96,10.056 c18.423,11.708,29.632,29.336,30.738,48.363c0.959,16.579-4.993,32.583-16.767,45.054c-12.29,13.028-29.484,20.498-47.161,20.498 c-6.338,0-12.52-1.009-18.35-2.968c1.115,4.682,2.755,9.232,4.903,13.52l6.248,12.487c1.968,3.944,1.755,8.527-0.558,12.266 C295.455,374.585,291.454,376.815,287.059,376.815z M223.483,360.024h56.779l-3.206-6.412c-5.485-10.987-8.388-23.285-8.388-35.568 v-16.431l13.315,9.626c6.805,4.919,14.939,7.519,23.54,7.519c13.078,0,25.819-5.551,34.953-15.226 c8.568-9.085,12.905-20.645,12.217-32.559c-0.795-13.57-9.167-26.389-22.982-35.162c-11.266-7.15-22.662-9.187-34.871-6.227 l-24.966,6.051l16.579-19.629c8.724-10.331,12.282-23.474,10.019-37.003c-3.017-18.054-17.603-33.071-35.469-36.523 c-13.816-2.669-27.278,0.685-37.896,9.437c-10.47,8.642-16.476,21.371-16.476,34.928c0,10.655,3.792,21.01,10.679,29.16 l16.603,19.649l-24.995-6.071c-12.106-2.927-23.421-0.955-34.588,6.051c-13.647,8.56-22.289,21.711-23.122,35.182 c-0.742,11.979,3.571,23.589,12.139,32.706c9.101,9.683,21.818,15.234,34.887,15.234c8.74,0,16.657-2.525,23.527-7.51l13.324-9.667 v16.464c0,12.282-2.902,24.573-8.392,35.568L223.483,360.024z"></path><path d="M176.318,124.947c-3.218,0-6.285-1.861-7.674-4.989l-25.913-58.3l-25.913,58.3c-1.89,4.235-6.85,6.141-11.081,4.259 c-4.235-1.882-6.145-6.842-4.259-11.081l33.584-75.563c1.345-3.03,4.354-4.985,7.67-4.985c3.316,0,6.326,1.955,7.67,4.985 l33.584,75.563c1.886,4.239-0.025,9.199-4.259,11.081C178.614,124.713,177.458,124.947,176.318,124.947z"></path><path d="M159.522,99.755h-33.584c-4.637,0-8.396-3.759-8.396-8.396s3.759-8.396,8.396-8.396h33.584 c4.637,0,8.396,3.759,8.396,8.396C167.918,95.996,164.159,99.755,159.522,99.755z"></path><path d="M361.024,469.17c-3.321,0-6.322-1.951-7.674-4.985l-33.584-75.563c-1.878-4.239,0.025-9.199,4.264-11.085 c4.239-1.878,9.199,0.025,11.085,4.264l25.909,58.304l25.909-58.304c1.886-4.231,6.854-6.141,11.085-4.264 c4.239,1.886,6.141,6.846,4.264,11.085l-33.584,75.563C367.345,467.219,364.344,469.17,361.024,469.17z"></path><path d="M377.815,418.795h-33.584c-4.641,0-8.396-3.755-8.396-8.396s3.755-8.396,8.396-8.396h33.584 c4.641,0,8.396,3.755,8.396,8.396S382.456,418.795,377.815,418.795z"></path></g></svg>